<svg viewBox="0 0 680 680" xmlns="http://www.w3.org/2000/svg">
  <rect width="680" height="680" fill="#fdfdfb"/>
  <g transform="rotate(1.5 340 340)">
    <path d="M 210 80 Q 215 180 205 280 Q 200 380 208 480 Q 205 560 203 620" stroke="#1a1a1a" stroke-width="2" fill="none" stroke-linecap="round"/>
    <path d="M 360 60 Q 355 160 365 260 Q 370 360 355 460 Q 352 540 358 600" stroke="#1a1a1a" stroke-width="2.5" fill="none" stroke-linecap="round"/>
    <path d="M 490 100 Q 495 200 485 300 Q 480 400 492 500 Q 490 580 488 640" stroke="#1a1a1a" stroke-width="2" fill="none" stroke-linecap="round"/>
    <path d="M 280 90 Q 275 190 285 290 Q 290 390 280 490 Q 277 570 282 630" stroke="#1a1a1a" stroke-width="2" fill="none" stroke-linecap="round"/>
    <path d="M 420 75 Q 425 175 415 275 Q 410 375 422 475 Q 420 555 418 615" stroke="#1a1a1a" stroke-width="2.5" fill="none" stroke-linecap="round"/>
    <circle cx="203" cy="620" r="2.5" fill="#1a1a1a" opacity="0.75"/>
    <circle cx="358" cy="600" r="2" fill="#1a1a1a" opacity="0.7"/>
    <circle cx="488" cy="640" r="2.5" fill="#1a1a1a" opacity="0.8"/>
    <circle cx="282" cy="630" r="2" fill="#1a1a1a" opacity="0.65"/>
    <circle cx="418" cy="615" r="2.5" fill="#1a1a1a" opacity="0.72"/>
  </g>
</svg>